<svg width="1920" height="1400" viewBox="0 0 1920 1400" xmlns="http://www.w3.org/2000/svg" xmlns:xlink="http://www.w3.org/1999/xlink">
    <g id="New-Group">
        <radialGradient id="radialGradient1" cx="959.922438" cy="700" r="624.922438" fx="959.922438" fy="700" gradientUnits="userSpaceOnUse">
            <stop offset="0" stop-color="#ffffff" stop-opacity="1"/>
            <stop offset="1" stop-color="#8cb5dd" stop-opacity="1"/>
        </radialGradient>
        <filter id="filter1" x="0" y="0" width="1920" height="1400" filterUnits="userSpaceOnUse" primitiveUnits="userSpaceOnUse" color-interpolation-filters="sRGB">
            <feGaussianBlur stdDeviation="25"/>
            <feOffset dx="-0" dy="25" result="offsetblur"/>
            <feFlood flood-color="#000000" flood-opacity="0.5"/>
            <feComposite in2="offsetblur" operator="in"/>
            <feMerge>
                <feMergeNode/>
                <feMergeNode in="SourceGraphic"/>
            </feMerge>
        </filter>
        <path id="Path-copy" fill="url(#radialGradient1)" stroke="#000000" stroke-width="3" stroke-linecap="round" stroke-linejoin="round" filter="url(#filter1)" d="M 1584.844849 700 L 1272.383667 1241 L 647.461243 1241 L 335 700 L 647.461243 159 L 1272.383667 159 L 1584.844849 700 Z"/>
        <text id="Hexagon" xml:space="preserve" x="960" y="213" text-anchor="middle" font-family="Verdana" font-size="30" font-weight="700" fill="#000000">Hexagon</text>
    </g>
    <g id="g1">
        <radialGradient id="radialGradient2" cx="959.808864" cy="700" r="452.808864" fx="959.808864" fy="700" gradientUnits="userSpaceOnUse">
            <stop offset="0" stop-color="#ffffff" stop-opacity="1"/>
            <stop offset="1" stop-color="#a5c896" stop-opacity="1"/>
        </radialGradient>
        <filter id="filter2" x="0" y="0" width="1920" height="1400" filterUnits="userSpaceOnUse" primitiveUnits="userSpaceOnUse" color-interpolation-filters="sRGB">
            <feGaussianBlur stdDeviation="25"/>
            <feOffset dx="-0" dy="25" result="offsetblur"/>
            <feFlood flood-color="#000000" flood-opacity="0.5"/>
            <feComposite in2="offsetblur" operator="in"/>
            <feMerge>
                <feMergeNode/>
                <feMergeNode in="SourceGraphic"/>
            </feMerge>
        </filter>
        <path id="Path" fill="url(#radialGradient2)" stroke="#000000" stroke-width="3" stroke-linecap="round" stroke-linejoin="round" filter="url(#filter2)" d="M 1412.617676 700 L 1186.213257 1092 L 733.404419 1092 L 507 700 L 733.404419 308 L 1186.213257 308 L 1412.617676 700 Z"/>
        <text id="Your-Abstraction-Layer" xml:space="preserve"><tspan x="960" y="349" text-anchor="middle" font-family="Verdana" font-size="30" fill="#000000" xml:space="preserve">Your</tspan><tspan x="960" y="385" text-anchor="middle" font-family="Verdana" font-size="30" font-weight="700" fill="#000000" xml:space="preserve">Abstraction Layer</tspan></text>
    </g>
    <g id="g2">
        <g id="g3">
            <radialGradient id="radialGradient3" cx="620.482759" cy="504.5" r="86.482759" fx="620.482759" fy="504.5" gradientUnits="userSpaceOnUse">
                <stop offset="0" stop-color="#a8ee8a" stop-opacity="1"/>
                <stop offset="1" stop-color="#80b56a" stop-opacity="1"/>
            </radialGradient>
            <filter id="filter3" x="0" y="0" width="1920" height="1400" filterUnits="userSpaceOnUse" primitiveUnits="userSpaceOnUse" color-interpolation-filters="sRGB">
                <feGaussianBlur stdDeviation="15"/>
                <feOffset dx="-0" dy="10" result="offsetblur"/>
                <feFlood flood-color="#000000" flood-opacity="0.5"/>
                <feComposite in2="offsetblur" operator="in"/>
                <feMerge>
                    <feMergeNode/>
                    <feMergeNode in="SourceGraphic"/>
                </feMerge>
            </filter>
            <path id="Ellipse" fill="url(#radialGradient3)" fill-rule="evenodd" stroke="#000000" stroke-width="2" stroke-linecap="round" stroke-linejoin="round" filter="url(#filter3)" d="M 706.965515 504.5 C 706.965515 458.936523 668.24585 422 620.482727 422 C 572.719666 422 534 458.936523 534 504.5 C 534 550.063477 572.719666 587 620.482727 587 C 668.24585 587 706.965515 550.063477 706.965515 504.5 Z"/>
            <text id="HTTP-Server-Port" xml:space="preserve"><tspan x="620" y="478" text-anchor="middle" font-family="Verdana" font-size="30" font-weight="700" fill="#000000" xml:space="preserve">HTTP</tspan><tspan x="620" y="514" text-anchor="middle" font-family="Verdana" font-size="30" font-weight="700" fill="#000000" xml:space="preserve">Server</tspan><tspan x="620" y="550" text-anchor="middle" font-family="Verdana" font-size="30" fill="#000000" xml:space="preserve">Port</tspan></text>
        </g>
        <path id="Line" fill="#fbe5cd" fill-rule="evenodd" stroke="#000000" stroke-width="3" stroke-linecap="round" stroke-linejoin="round" d="M 568 438 L 507 364"/>
        <path id="path1" fill="#fbe5cd" fill-rule="evenodd" stroke="#000000" stroke-width="3" stroke-linecap="round" stroke-linejoin="round" d="M 371 294 L 276 210"/>
        <g id="g4">
            <linearGradient id="linearGradient1" x1="507" y1="364" x2="507" y2="225" gradientUnits="userSpaceOnUse">
                <stop offset="0" stop-color="#9281bc" stop-opacity="1"/>
                <stop offset="1" stop-color="#d9d2ea" stop-opacity="1"/>
            </linearGradient>
            <path id="path2" fill="url(#linearGradient1)" fill-rule="evenodd" stroke="#000000" stroke-width="1.816326" stroke-linecap="round" stroke-linejoin="round" d="M 392.118011 225 C 380.454956 225 371 236.192993 371 250 L 371 339 C 371 352.807007 380.454956 364 392.118011 364 L 621.881958 364 C 633.545044 364 643 352.807007 643 339 L 643 250 C 643 236.192993 633.545044 225 621.881958 225 Z"/>
            <text id="Jetty-Adapter" xml:space="preserve"><tspan x="507" y="286" text-anchor="middle" font-family="Verdana" font-size="30" font-weight="700" fill="#000000" xml:space="preserve">Jetty</tspan><tspan x="507" y="322" text-anchor="middle" font-family="Verdana" font-size="30" fill="#000000" xml:space="preserve">Adapter</tspan></text>
        </g>
        <g id="g5">
            <path id="path3" fill="#fbe5cd" stroke="#000000" stroke-width="3" stroke-linecap="round" stroke-linejoin="round" d="M 300.025818 164.230835 L 241.269348 266 L 123.756454 266 L 65 164.230835 L 123.756454 62.46167 L 241.269348 62.46167 L 300.025818 164.230835 Z"/>
            <text id="Other-Service" xml:space="preserve"><tspan x="183" y="156" text-anchor="middle" font-family="Verdana" font-size="30" fill="#000000" xml:space="preserve">Other</tspan><tspan x="183" y="192" text-anchor="middle" font-family="Verdana" font-size="30" fill="#000000" xml:space="preserve">Service</tspan></text>
        </g>
    </g>
    <g id="g6">
        <g id="g7">
            <radialGradient id="radialGradient4" cx="1301.482759" cy="895.5" r="86.482759" fx="1301.482759" fy="895.5" gradientUnits="userSpaceOnUse">
                <stop offset="0" stop-color="#a8ee8a" stop-opacity="1"/>
                <stop offset="1" stop-color="#80b56a" stop-opacity="1"/>
            </radialGradient>
            <filter id="filter4" x="0" y="0" width="1920" height="1400" filterUnits="userSpaceOnUse" primitiveUnits="userSpaceOnUse" color-interpolation-filters="sRGB">
                <feGaussianBlur stdDeviation="15"/>
                <feOffset dx="-0" dy="10" result="offsetblur"/>
                <feFlood flood-color="#000000" flood-opacity="0.5"/>
                <feComposite in2="offsetblur" operator="in"/>
                <feMerge>
                    <feMergeNode/>
                    <feMergeNode in="SourceGraphic"/>
                </feMerge>
            </filter>
            <path id="path4" fill="url(#radialGradient4)" fill-rule="evenodd" stroke="#000000" stroke-width="2" stroke-linecap="round" stroke-linejoin="round" filter="url(#filter4)" d="M 1387.965454 895.5 C 1387.965454 849.936523 1349.24585 813 1301.482788 813 C 1253.719604 813 1215 849.936523 1215 895.5 C 1215 941.063477 1253.719604 978 1301.482788 978 C 1349.24585 978 1387.965454 941.063477 1387.965454 895.5 Z"/>
            <text id="HTTP-Client-Port" xml:space="preserve"><tspan x="1301" y="869" text-anchor="middle" font-family="Verdana" font-size="30" font-weight="700" fill="#000000" xml:space="preserve">HTTP</tspan><tspan x="1301" y="905" text-anchor="middle" font-family="Verdana" font-size="30" font-weight="700" fill="#000000" xml:space="preserve">Client</tspan><tspan x="1301" y="941" text-anchor="middle" font-family="Verdana" font-size="30" fill="#000000" xml:space="preserve">Port</tspan></text>
        </g>
        <g id="New-Group-copy">
            <path id="path5" fill="#fbe5cd" stroke="#000000" stroke-width="3" stroke-linecap="round" stroke-linejoin="round" d="M 1886.025757 1241.230835 L 1827.269409 1343 L 1709.75647 1343 L 1651 1241.230835 L 1709.75647 1139.46167 L 1827.269409 1139.46167 L 1886.025757 1241.230835 Z"/>
            <text id="text1" xml:space="preserve"><tspan x="1769" y="1233" text-anchor="middle" font-family="Verdana" font-size="30" fill="#000000" xml:space="preserve">Other</tspan><tspan x="1769" y="1269" text-anchor="middle" font-family="Verdana" font-size="30" fill="#000000" xml:space="preserve">Service</tspan></text>
        </g>
        <path id="path6" fill="#fbe5cd" fill-rule="evenodd" stroke="#000000" stroke-width="3" stroke-linecap="round" stroke-linejoin="round" d="M 1346 967 L 1413 1051"/>
        <path id="path7" fill="#fbe5cd" fill-rule="evenodd" stroke="#000000" stroke-width="3" stroke-linecap="round" stroke-linejoin="round" d="M 1561 1118 L 1679 1187"/>
        <g id="g8">
            <linearGradient id="linearGradient2" x1="1425" y1="1190" x2="1425" y2="1051" gradientUnits="userSpaceOnUse">
                <stop offset="0" stop-color="#9281bc" stop-opacity="1"/>
                <stop offset="1" stop-color="#d9d2ea" stop-opacity="1"/>
            </linearGradient>
            <path id="path8" fill="url(#linearGradient2)" fill-rule="evenodd" stroke="#000000" stroke-width="1.816326" stroke-linecap="round" stroke-linejoin="round" d="M 1310.118042 1051 C 1298.454956 1051 1289 1062.192993 1289 1076 L 1289 1165 C 1289 1178.807007 1298.454956 1190 1310.118042 1190 L 1539.881958 1190 C 1551.545044 1190 1561 1178.807007 1561 1165 L 1561 1076 C 1561 1062.192993 1551.545044 1051 1539.881958 1051 Z"/>
            <text id="Feign-Adapter" xml:space="preserve"><tspan x="1425" y="1112" text-anchor="middle" font-family="Verdana" font-size="30" font-weight="700" fill="#000000" xml:space="preserve">Feign</tspan><tspan x="1425" y="1148" text-anchor="middle" font-family="Verdana" font-size="30" fill="#000000" xml:space="preserve">Adapter</tspan></text>
        </g>
    </g>
    <g id="g9">
        <g id="g10">
            <radialGradient id="radialGradient5" cx="620.482759" cy="876.5" r="86.482759" fx="620.482759" fy="876.5" gradientUnits="userSpaceOnUse">
                <stop offset="0" stop-color="#a8ee8a" stop-opacity="1"/>
                <stop offset="1" stop-color="#80b56a" stop-opacity="1"/>
            </radialGradient>
            <filter id="filter5" x="0" y="0" width="1920" height="1400" filterUnits="userSpaceOnUse" primitiveUnits="userSpaceOnUse" color-interpolation-filters="sRGB">
                <feGaussianBlur stdDeviation="15"/>
                <feOffset dx="-0" dy="10" result="offsetblur"/>
                <feFlood flood-color="#000000" flood-opacity="0.5"/>
                <feComposite in2="offsetblur" operator="in"/>
                <feMerge>
                    <feMergeNode/>
                    <feMergeNode in="SourceGraphic"/>
                </feMerge>
            </filter>
            <path id="path9" fill="url(#radialGradient5)" fill-rule="evenodd" stroke="#000000" stroke-width="2" stroke-linecap="round" stroke-linejoin="round" filter="url(#filter5)" d="M 706.965515 876.5 C 706.965515 830.936523 668.24585 794 620.482727 794 C 572.719666 794 534 830.936523 534 876.5 C 534 922.063477 572.719666 959 620.482727 959 C 668.24585 959 706.965515 922.063477 706.965515 876.5 Z"/>
            <text id="Messaging-Port" xml:space="preserve"><tspan x="620" y="869" text-anchor="middle" font-family="Verdana" font-size="24" font-weight="700" fill="#000000" xml:space="preserve">Messaging</tspan><tspan x="620" y="898" text-anchor="middle" font-family="Verdana" font-size="24" fill="#000000" xml:space="preserve">Port</tspan></text>
        </g>
        <g id="g11">
            <path id="path10" fill="#fbe5cd" stroke="#000000" stroke-width="3" stroke-linecap="round" stroke-linejoin="round" d="M 300.025818 1241.230835 L 241.269348 1343 L 123.756454 1343 L 65 1241.230835 L 123.756454 1139.46167 L 241.269348 1139.46167 L 300.025818 1241.230835 Z"/>
            <text id="Messaging-Service" xml:space="preserve"><tspan x="183" y="1233" text-anchor="middle" font-family="Verdana" font-size="30" fill="#000000" xml:space="preserve">Messaging</tspan><tspan x="183" y="1269" text-anchor="middle" font-family="Verdana" font-size="30" fill="#000000" xml:space="preserve">Service</tspan></text>
        </g>
        <path id="path11" fill="#fbe5cd" fill-rule="evenodd" stroke="#000000" stroke-width="3" stroke-linecap="round" stroke-linejoin="round" d="M 576 949 L 507 1051"/>
        <path id="path12" fill="#fbe5cd" fill-rule="evenodd" stroke="#000000" stroke-width="3" stroke-linecap="round" stroke-linejoin="round" d="M 371 1120 L 271.000275 1190.000366"/>
        <g id="g12">
            <linearGradient id="linearGradient3" x1="507" y1="1190" x2="507" y2="1051" gradientUnits="userSpaceOnUse">
                <stop offset="0" stop-color="#9281bc" stop-opacity="1"/>
                <stop offset="1" stop-color="#d9d2ea" stop-opacity="1"/>
            </linearGradient>
            <path id="path13" fill="url(#linearGradient3)" fill-rule="evenodd" stroke="#000000" stroke-width="1.816326" stroke-linecap="round" stroke-linejoin="round" d="M 392.118011 1051 C 380.454956 1051 371 1062.192993 371 1076 L 371 1165 C 371 1178.807007 380.454956 1190 392.118011 1190 L 621.881958 1190 C 633.545044 1190 643 1178.807007 643 1165 L 643 1076 C 643 1062.192993 633.545044 1051 621.881958 1051 Z"/>
            <text id="Kafka-Adapter" xml:space="preserve"><tspan x="507" y="1112" text-anchor="middle" font-family="Verdana" font-size="30" font-weight="700" fill="#000000" xml:space="preserve">Kafka</tspan><tspan x="507" y="1148" text-anchor="middle" font-family="Verdana" font-size="30" fill="#000000" xml:space="preserve">Adapter</tspan></text>
        </g>
    </g>
    <g id="g13">
        <g id="g14">
            <radialGradient id="radialGradient6" cx="1301.482759" cy="504.5" r="86.482759" fx="1301.482759" fy="504.5" gradientUnits="userSpaceOnUse">
                <stop offset="0" stop-color="#a8ee8a" stop-opacity="1"/>
                <stop offset="1" stop-color="#80b56a" stop-opacity="1"/>
            </radialGradient>
            <filter id="filter6" x="0" y="0" width="1920" height="1400" filterUnits="userSpaceOnUse" primitiveUnits="userSpaceOnUse" color-interpolation-filters="sRGB">
                <feGaussianBlur stdDeviation="15"/>
                <feOffset dx="-0" dy="10" result="offsetblur"/>
                <feFlood flood-color="#000000" flood-opacity="0.5"/>
                <feComposite in2="offsetblur" operator="in"/>
                <feMerge>
                    <feMergeNode/>
                    <feMergeNode in="SourceGraphic"/>
                </feMerge>
            </filter>
            <path id="path14" fill="url(#radialGradient6)" fill-rule="evenodd" stroke="#000000" stroke-width="2" stroke-linecap="round" stroke-linejoin="round" filter="url(#filter6)" d="M 1387.965454 504.5 C 1387.965454 458.936523 1349.24585 422 1301.482788 422 C 1253.719604 422 1215 458.936523 1215 504.5 C 1215 550.063477 1253.719604 587 1301.482788 587 C 1349.24585 587 1387.965454 550.063477 1387.965454 504.5 Z"/>
            <text id="Store-Port" xml:space="preserve"><tspan x="1301" y="496" text-anchor="middle" font-family="Verdana" font-size="30" font-weight="700" fill="#000000" xml:space="preserve">Store</tspan><tspan x="1301" y="532" text-anchor="middle" font-family="Verdana" font-size="30" fill="#000000" xml:space="preserve">Port</tspan></text>
        </g>
        <path id="path15" fill="none" stroke="#000000" stroke-width="3" stroke-linecap="round" stroke-linejoin="round" d="M 1355 439 L 1425 364"/>
        <path id="path16" fill="none" stroke="#000000" stroke-width="3" stroke-linecap="round" stroke-linejoin="round" d="M 1561 294 L 1652 238"/>
        <g id="g15">
            <linearGradient id="linearGradient4" x1="1425" y1="364" x2="1425" y2="225" gradientUnits="userSpaceOnUse">
                <stop offset="0" stop-color="#9281bc" stop-opacity="1"/>
                <stop offset="1" stop-color="#d9d2ea" stop-opacity="1"/>
            </linearGradient>
            <path id="path17" fill="url(#linearGradient4)" fill-rule="evenodd" stroke="#000000" stroke-width="1.816326" stroke-linecap="round" stroke-linejoin="round" d="M 1310.118042 225 C 1298.454956 225 1289 236.192993 1289 250 L 1289 339 C 1289 352.807007 1298.454956 364 1310.118042 364 L 1539.881958 364 C 1551.545044 364 1561 352.807007 1561 339 L 1561 250 C 1561 236.192993 1551.545044 225 1539.881958 225 Z"/>
            <text id="Database-Adapter" xml:space="preserve"><tspan x="1425" y="286" text-anchor="middle" font-family="Verdana" font-size="30" font-weight="700" fill="#000000" xml:space="preserve">Database</tspan><tspan x="1425" y="322" text-anchor="middle" font-family="Verdana" font-size="30" fill="#000000" xml:space="preserve">Adapter</tspan></text>
        </g>
        <g id="g16">
            <g id="g17">
                <path id="Ellipse-copy" fill="#689cff" fill-rule="evenodd" stroke="#000000" stroke-width="2.377551" stroke-linecap="round" stroke-linejoin="round" d="M 1885 230.441284 C 1885 211.073364 1832.841187 195.372437 1768.5 195.372437 C 1704.158813 195.372437 1652 211.073364 1652 230.441284 C 1652 249.809326 1704.158813 265.510254 1768.5 265.510254 C 1832.841187 265.510254 1885 249.809326 1885 230.441284 Z"/>
                <path id="Rounded-Rectangle" fill="#689cff" fill-rule="evenodd" stroke="#000000" stroke-width="2.377551" stroke-linecap="round" stroke-linejoin="round" d="M 1653.188721 86.005127 C 1652.532227 86.005127 1652 86.537354 1652 87.193848 L 1652 228.658203 C 1652 229.314697 1652.532227 229.846924 1653.188721 229.846924 L 1883.811279 229.846924 C 1884.467773 229.846924 1885 229.314697 1885 228.658203 L 1885 87.193848 C 1885 86.537354 1884.467773 86.005127 1883.811279 86.005127 Z"/>
                <path id="path18" fill="#7fa9f8" fill-rule="evenodd" stroke="#000000" stroke-width="2.377551" stroke-linecap="round" stroke-linejoin="round" d="M 1883.811279 86.599487 C 1883.811279 67.231445 1831.986694 51.53064 1768.057983 51.53064 C 1704.129272 51.53064 1652.30481 67.231445 1652.30481 86.599487 C 1652.30481 105.967529 1704.129272 121.668335 1768.057983 121.668335 C 1831.986694 121.668335 1883.811279 105.967529 1883.811279 86.599487 Z"/>
                <path id="path19" fill="#689cff" fill-rule="evenodd" stroke="none" d="M 1654.377563 225.091797 C 1653.721069 225.091797 1653.188721 225.624023 1653.188721 226.28064 L 1653.188721 231.035767 C 1653.188721 231.692261 1653.721069 232.224487 1654.377563 232.224487 L 1882.622437 232.224487 C 1883.278931 232.224487 1883.811279 231.692261 1883.811279 231.035767 L 1883.811279 226.28064 C 1883.811279 225.624023 1883.278931 225.091797 1882.622437 225.091797 Z"/>
            </g>
            <text id="PostgreSQL" xml:space="preserve" x="1769" y="191" text-anchor="middle" font-family="Verdana" font-size="30" fill="#000000">PostgreSQL</text>
        </g>
    </g>
    <g id="g18">
        <radialGradient id="radialGradient7" cx="959.479873" cy="700.5" r="298.479873" fx="959.479873" fy="700.5" gradientUnits="userSpaceOnUse">
            <stop offset="0" stop-color="#ffffff" stop-opacity="1"/>
            <stop offset="1" stop-color="#f3bb83" stop-opacity="1"/>
        </radialGradient>
        <filter id="filter7" x="0" y="0" width="1920" height="1400" filterUnits="userSpaceOnUse" primitiveUnits="userSpaceOnUse" color-interpolation-filters="sRGB">
            <feGaussianBlur stdDeviation="25"/>
            <feOffset dx="-0" dy="25" result="offsetblur"/>
            <feFlood flood-color="#000000" flood-opacity="0.5"/>
            <feComposite in2="offsetblur" operator="in"/>
            <feMerge>
                <feMergeNode/>
                <feMergeNode in="SourceGraphic"/>
            </feMerge>
        </filter>
        <path id="path20" fill="url(#radialGradient7)" stroke="#000000" stroke-width="3" stroke-linecap="round" stroke-linejoin="round" filter="url(#filter7)" d="M 1257.959717 700.5 L 1108.719849 959 L 810.239929 959 L 661 700.5 L 810.239929 442 L 1108.719849 442 L 1257.959717 700.5 Z"/>
        <text id="Your-Application-Logic" xml:space="preserve"><tspan x="960" y="500" text-anchor="middle" font-family="Verdana" font-size="30" fill="#000000" xml:space="preserve">Your</tspan><tspan x="960" y="536" text-anchor="middle" font-family="Verdana" font-size="30" font-weight="700" fill="#000000" xml:space="preserve">Application Logic</tspan></text>
    </g>
    <g id="g19">
        <radialGradient id="radialGradient8" cx="961.116204" cy="699.890979" r="113.016097" fx="961.116204" fy="699.890979" gradientUnits="userSpaceOnUse">
            <stop offset="0" stop-color="#ffffff" stop-opacity="1"/>
            <stop offset="1" stop-color="#fbdd85" stop-opacity="1"/>
        </radialGradient>
        <filter id="filter8" x="0" y="0" width="1920" height="1400" filterUnits="userSpaceOnUse" primitiveUnits="userSpaceOnUse" color-interpolation-filters="sRGB">
            <feGaussianBlur stdDeviation="5"/>
            <feOffset dx="-0" dy="7" result="offsetblur"/>
            <feFlood flood-color="#000000" flood-opacity="0.269498"/>
            <feComposite in2="offsetblur" operator="in"/>
            <feMerge>
                <feMergeNode/>
                <feMergeNode in="SourceGraphic"/>
            </feMerge>
        </filter>
        <path id="path21" fill="url(#radialGradient8)" fill-rule="evenodd" stroke="#000000" stroke-width="3" stroke-linecap="round" stroke-linejoin="round" filter="url(#filter8)" d="M 1073 700 C 1073 637.591797 1022.408203 587 960 587 C 897.591797 587 847 637.591797 847 700 C 847 762.408203 897.591797 813 960 813 C 1022.408203 813 1073 762.408203 1073 700 Z"/>
        <text id="Your-Domain-Logic" xml:space="preserve"><tspan x="960" y="674" text-anchor="middle" font-family="Verdana" font-size="30" fill="#000000" xml:space="preserve">Your</tspan><tspan x="960" y="710" text-anchor="middle" font-family="Verdana" font-size="30" font-weight="700" fill="#000000" xml:space="preserve">Domain</tspan><tspan x="960" y="746" text-anchor="middle" font-family="Verdana" font-size="30" font-weight="700" fill="#000000" xml:space="preserve">Logic</tspan></text>
    </g>
</svg>
